<svg xmlns="http://www.w3.org/2000/svg" viewBox="0 0 14 11" width="14" height="11" shape-rendering="crispEdges">  <rect x="5" y="0" width="6" height="1" fill="#C77C36"></rect>  <rect x="4" y="1" width="8" height="1" fill="#C77C36"></rect>  <rect x="0" y="4" width="14" height="1" fill="#C77C36"></rect>  <rect x="2" y="5" width="10" height="3" fill="#C77C36"></rect>  <rect x="2" y="8" width="10" height="1" fill="#A9651F"></rect>  <rect x="3" y="9" width="2" height="1" fill="#C77C36"></rect>  <rect x="9" y="9" width="2" height="1" fill="#C77C36"></rect>  <rect x="2" y="10" width="3" height="1" fill="#A9651F"></rect>  <rect x="9" y="10" width="3" height="1" fill="#A9651F"></rect>  <rect x="3" y="2" width="1" height="1" fill="#C77C36"></rect>  <rect x="6" y="2" width="2" height="1" fill="#C77C36"></rect>  <rect x="10" y="2" width="2" height="1" fill="#C77C36"></rect>  <rect x="2" y="3" width="2" height="1" fill="#C77C36"></rect>  <rect x="6" y="3" width="2" height="1" fill="#C77C36"></rect>  <rect x="10" y="3" width="2" height="1" fill="#C77C36"></rect>  <rect x="4" y="2" width="2" height="2" fill="#2B1608"></rect>  <rect x="8" y="2" width="2" height="2" fill="#2B1608"></rect></svg>